{"title":"Fright.Night.2011.TS.x264.Feel-Free","uid":6627290,"size":1281888465,"categoryP":"video","categoryS":"movies","magnet":"?xt=urn:btih:25a624f517016a514e4719b43994bc8b73b266af&amp;dn=Fright.Night.2011.TS.x264.Feel-Free&amp;tr=udp%3A%2F%2Ftracker.openbittorrent.com%3A80&amp;tr=udp%3A%2F%2Fopen.demonii.com%3A1337&amp;tr=udp%3A%2F%2Ftracker.coppersurfer.tk%3A6969&amp;tr=udp%3A%2F%2Fexodus.desync.com%3A6969","seeders":0,"leechers":1,"uploader":"SnowCrash03","files":-1,"time":1314196385,"description":"Genre:Comedy | Horror\n Language:English\n IMDb:http://www.imdb.com/title/tt1438176/\n Source:IMAGINE Thanks!\n-\n\nFormat : MPEG-4\n Format profile : Base Media\n Codec ID : isom\n File size : 1.19 GiB\n Duration : 1h 38mn\n Overall bit rate : 1 738 Kbps\n- \nVideo\n ID : 1\n Format : AVC\n Format/Info : Advanced Video Codec\n Format profile : &lt;a class=&quot;__cf_email__&quot; href=&quot;/cdn-cgi/l/email-protection&quot; data-cfemail=&quot;f4bc9d939cb4b8c0dac5&quot;&gt;[email&amp;#160;protected]&lt;/a&gt;&lt;script cf-hash='f9e31' type=&quot;text/javascript&quot;&gt;\n/* &lt;![CDATA[ */!function(){try{var t=&quot;currentScript&quot;in document?document.currentScript:function(){for(var t=document.getElementsByTagName(&quot;script&quot;),e=t.length;e--;)if(t[e].getAttribute(&quot;cf-hash&quot;))return t[e]}();if(t&amp;&amp;t.previousSibling){var e,r,n,i,c=t.previousSibling,a=c.getAttribute(&quot;data-cfemail&quot;);if(a){for(e=&quot;&quot;,r=parseInt(a.substr(0,2),16),n=2;a.length-n;n+=2)i=parseInt(a.substr(n,2),16)^r,e+=String.fromCharCode(i);e=document.createTextNode(e),c.parentNode.replaceChild(e,c)}}}catch(u){}}();/* ]]&gt; */&lt;/script&gt;\n Format settings, CABAC : Yes\n Format settings, ReFrames : 3 frames\n Codec ID : avc1\n Codec ID/Info : Advanced Video Coding\n Duration : 1h 38mn\n Bit rate mode : Variable\n Bit rate : 1 500 Kbps\n Maximum bit rate : 15.1 Mbps\n Width : 720 pixels\n Height : 296 pixels\n Display aspect ratio : 2.40:1\n Frame rate mode : Constant\n Frame rate : 29.970 fps\n Color space : YUV\n Chroma subsampling : 4:2:0\n Bit depth : 8 bits\n Scan type : Progressive\n Bits/(Pixel*Frame) : 0.235\n Stream size : 1.04 GiB (87%)\n Writing library : x264\n-\n\nAudio\n ID : 2\n Format : AAC\n Format/Info : Advanced Audio Codec\n Format version : Version 4\n Format profile : LC\n Format settings, SBR : No\n Codec ID : 40\n Duration : 1h 38mn\n Bit rate mode : Variable\n Bit rate : 224 Kbps\n Maximum bit rate : 253 Kbps\n Channel(s) : 2 channels\n Channel positions : Front: L R\n Sampling rate : 44.1 KHz\n Stream size : 157 MiB (13%)\n-\n\nPlot:\n A teenager suspects that his new neighbor is a vampire.\n ","torrent":{"xt":"urn:btih:25a624f517016a514e4719b43994bc8b73b266af","amp;dn":"Fright.Night.2011.TS.x264.Feel-Free","amp;tr":["udp%3A%2F%2Ftracker.openbittorrent.com%3A80","udp%3A%2F%2Fopen.demonii.com%3A1337","udp%3A%2F%2Ftracker.coppersurfer.tk%3A6969","udp%3A%2F%2Fexodus.desync.com%3A6969"],"infoHash":"25a624f517016a514e4719b43994bc8b73b266af","infoHashBuffer":{"type":"Buffer","data":[37,166,36,245,23,1,106,81,78,71,25,180,57,148,188,139,115,178,102,175]},"announce":[],"urlList":[]}}